<?xml version="1.0" encoding="UTF-8" standalone="no"?>
<svg
   xmlns:dc="http://purl.org/dc/elements/1.1/"
   xmlns:cc="http://creativecommons.org/ns#"
   xmlns:rdf="http://www.w3.org/1999/02/22-rdf-syntax-ns#"
   xmlns:svg="http://www.w3.org/2000/svg"
   xmlns="http://www.w3.org/2000/svg"
   xmlns:sodipodi="http://sodipodi.sourceforge.net/DTD/sodipodi-0.dtd"
   xmlns:inkscape="http://www.inkscape.org/namespaces/inkscape"
   height="48"
   viewBox="0 0 48 48"
   width="48"
   id="svg4383"
   version="1.1"
   inkscape:version="0.91 r"
   sodipodi:docname="agilite.svg">
  <metadata
     id="metadata4393">
    <rdf:RDF>
      <cc:Work
         rdf:about="">
        <dc:format>image/svg+xml</dc:format>
        <dc:type
           rdf:resource="http://purl.org/dc/dcmitype/StillImage" />
        <dc:title></dc:title>
      </cc:Work>
    </rdf:RDF>
  </metadata>
  <defs
     id="defs4391" />
  <sodipodi:namedview
     pagecolor="#ffffff"
     bordercolor="#666666"
     borderopacity="1"
     objecttolerance="10"
     gridtolerance="10"
     guidetolerance="10"
     inkscape:pageopacity="0"
     inkscape:pageshadow="2"
     inkscape:window-width="1301"
     inkscape:window-height="744"
     id="namedview4389"
     showgrid="false"
     inkscape:zoom="4.9166667"
     inkscape:cx="48.40678"
     inkscape:cy="7.7288136"
     inkscape:window-x="65"
     inkscape:window-y="24"
     inkscape:window-maximized="1"
     inkscape:current-layer="svg4383" />
  <path
     d="M0 0h48v48h-48z"
     fill="none"
     id="path4385" />
  <path
     d="m 34,30 4,0 0,-16 c 0,-2.21 -1.79,-4 -4,-4 l -16,0 0,4 16,0 0,16 z m -20,4 0,-32 -4,0 0,8 -8,0 0,4 8,0 0,20 c 0,2.21 1.79,4 4,4 l 20,0 0,8 4,0 0,-8 8,0 0,-4 -32,0 z"
     id="path4387"
     style="fill:#aa0000;fill-opacity:1"
     inkscape:connector-curvature="0" />
</svg>
