<?xml version="1.0" encoding="UTF-8" standalone="no"?>
<svg
   xmlns:dc="http://purl.org/dc/elements/1.1/"
   xmlns:cc="http://creativecommons.org/ns#"
   xmlns:rdf="http://www.w3.org/1999/02/22-rdf-syntax-ns#"
   xmlns:svg="http://www.w3.org/2000/svg"
   xmlns="http://www.w3.org/2000/svg"
   xmlns:sodipodi="http://sodipodi.sourceforge.net/DTD/sodipodi-0.dtd"
   xmlns:inkscape="http://www.inkscape.org/namespaces/inkscape"
   height="48"
   viewBox="0 0 48 48"
   width="48"
   id="svg3508"
   version="1.1"
   inkscape:version="0.91 r"
   sodipodi:docname="business-building.svg">
  <metadata
     id="metadata3518">
    <rdf:RDF>
      <cc:Work
         rdf:about="">
        <dc:format>image/svg+xml</dc:format>
        <dc:type
           rdf:resource="http://purl.org/dc/dcmitype/StillImage" />
        <dc:title></dc:title>
      </cc:Work>
    </rdf:RDF>
  </metadata>
  <defs
     id="defs3516" />
  <sodipodi:namedview
     pagecolor="#ffffff"
     bordercolor="#666666"
     borderopacity="1"
     objecttolerance="10"
     gridtolerance="10"
     guidetolerance="10"
     inkscape:pageopacity="0"
     inkscape:pageshadow="2"
     inkscape:window-width="1301"
     inkscape:window-height="744"
     id="namedview3514"
     showgrid="false"
     inkscape:zoom="12.645833"
     inkscape:cx="24"
     inkscape:cy="24"
     inkscape:window-x="65"
     inkscape:window-y="24"
     inkscape:window-maximized="1"
     inkscape:current-layer="svg3508" />
  <path
     d="M0 0h48v48h-48z"
     fill="none"
     id="path3510" />
  <path
     d="M24 14v-8h-20v36h40v-28h-20zm-12 24h-4v-4h4v4zm0-8h-4v-4h4v4zm0-8h-4v-4h4v4zm0-8h-4v-4h4v4zm8 24h-4v-4h4v4zm0-8h-4v-4h4v4zm0-8h-4v-4h4v4zm0-8h-4v-4h4v4zm20 24h-16v-4h4v-4h-4v-4h4v-4h-4v-4h16v20zm-4-16h-4v4h4v-4zm0 8h-4v4h4v-4z"
     id="path3512"
     style="fill:#ffffff" />
</svg>
