<?xml version="1.0" encoding="UTF-8" standalone="no"?>
<svg
   xmlns:dc="http://purl.org/dc/elements/1.1/"
   xmlns:cc="http://creativecommons.org/ns#"
   xmlns:rdf="http://www.w3.org/1999/02/22-rdf-syntax-ns#"
   xmlns:svg="http://www.w3.org/2000/svg"
   xmlns="http://www.w3.org/2000/svg"
   xmlns:sodipodi="http://sodipodi.sourceforge.net/DTD/sodipodi-0.dtd"
   xmlns:inkscape="http://www.inkscape.org/namespaces/inkscape"
   height="48"
   viewBox="0 0 48 48"
   width="48"
   id="svg3502"
   version="1.1"
   inkscape:version="0.91 r"
   sodipodi:docname="interactivite.svg">
  <metadata
     id="metadata3512">
    <rdf:RDF>
      <cc:Work
         rdf:about="">
        <dc:format>image/svg+xml</dc:format>
        <dc:type
           rdf:resource="http://purl.org/dc/dcmitype/StillImage" />
        <dc:title></dc:title>
      </cc:Work>
    </rdf:RDF>
  </metadata>
  <defs
     id="defs3510" />
  <sodipodi:namedview
     pagecolor="#ffffff"
     bordercolor="#666666"
     borderopacity="1"
     objecttolerance="10"
     gridtolerance="10"
     guidetolerance="10"
     inkscape:pageopacity="0"
     inkscape:pageshadow="2"
     inkscape:window-width="1301"
     inkscape:window-height="744"
     id="namedview3508"
     showgrid="false"
     inkscape:zoom="4.9166667"
     inkscape:cx="24"
     inkscape:cy="24"
     inkscape:window-x="65"
     inkscape:window-y="24"
     inkscape:window-maximized="1"
     inkscape:current-layer="svg3502" />
  <path
     d="M0-.17h48v48h-48z"
     fill="none"
     id="path3504" />
  <path
     d="M14 10.17h20v4h4v-8c0-2.21-1.79-3.98-4-3.98l-20-.02c-2.21 0-4 1.79-4 4v8h4v-4zm16.83 23.17l9.17-9.17-9.17-9.17-2.83 2.83 6.34 6.34-6.34 6.35 2.83 2.82zm-10.83-2.82l-6.34-6.34 6.34-6.35-2.83-2.83-9.17 9.17 9.17 9.17 2.83-2.82zm14 7.65h-20v-4h-4v8c0 2.21 1.79 4 4 4h20c2.21 0 4-1.79 4-4v-8h-4v4z"
     id="path3506"
     style="fill:#aa0000" />
</svg>
